# xmcd
#
# Track frame offsets: 
#        150
#        19852
#        38822
#        45627
#        67193
#        106559
#        122907
#        142357
#        157472
#        173810
#        227881
#        244672
#        261205
#        284551
#        302759
#
# Disc length: 4250 seconds
#
# Revision: 1
# Processed by: cddbd v1.5.2PL0 Copyright (c) Steve Scherf et al.
# Submitted via: ExactAudioCopy v1.3
#
DISCID=e310980f
DTITLE=Fleetwood Mac - Before The Beginning - 1968-1970 - Live and Demo 
DTITLE=Sessions - CD 2 -
DYEAR=2019
DGENRE=Blues
TTITLE0=Long Tall Sally
TTITLE1=Willie And The Hand Jive
TTITLE2=I Need Your Love So Bad
TTITLE3=I Believe My Time Ain't Long (Version 2)
TTITLE4=Shake Your Money Maker
TTITLE5=Before The Beginning
TTITLE6=Only You
TTITLE7=Madison Blues (Version 2)
TTITLE8=Can't Stop Loving
TTITLE9=The Green Manalishi (With The Two Prong Crown)
TTITLE10=Albatross
TTITLE11=World In Harmony (Version 1)
TTITLE12=Sandy Mary
TTITLE13=Only You
TTITLE14=World In Harmony (Version 2)
EXTD=
EXTT0=
EXTT1=
EXTT2=
EXTT3=
EXTT4=
EXTT5=
EXTT6=
EXTT7=
EXTT8=
EXTT9=
EXTT10=
EXTT11=
EXTT12=
EXTT13=
EXTT14=
PLAYORDER=
